<svg width="20" height="20" viewBox="0 0 20 20" fill="none" xmlns="http://www.w3.org/2000/svg">
<path d="M9.98443 20L17.0445 14.241C20.9608 11.0034 20.9886 5.73101 17.1065 2.46485C13.2244 -0.801305 6.90261 -0.824479 2.98634 2.41315C2.96558 2.4303 2.94492 2.44754 2.92434 2.46485C-0.974828 5.71682 -0.974781 10.9892 2.92448 14.2411C2.92711 14.2433 2.92973 14.2455 2.93236 14.2477L9.98443 20ZM4.33615 3.64229C7.45339 1.03886 12.5111 1.03585 15.6327 3.63565C18.7543 6.23545 18.758 10.4535 15.6407 13.0569L9.98443 17.6701L4.33615 13.0636C1.21671 10.4621 1.21657 6.24417 4.33587 3.64253C4.33597 3.64245 4.33606 3.64237 4.33615 3.64229ZM8.98596 9.18565H5.9906V7.52021H8.98596V5.02209H10.9828V7.52021H13.9782V9.18565H10.9828V11.6838H8.98596V9.18565Z" fill="white"/>
</svg>
