<svg width="26" height="26" viewBox="0 0 26 26" fill="none" xmlns="http://www.w3.org/2000/svg">
<path d="M12.9947 0.166673C10.2323 0.165666 7.54147 1.11346 5.31315 2.8724C3.08482 4.63134 1.43501 7.1098 0.603366 9.94781C-0.228283 12.7858 -0.198462 15.8356 0.688495 18.6541C1.57545 21.4726 3.27335 23.913 5.53558 25.621L5.81606 25.8333H20.1734L20.4538 25.621C22.7161 23.913 24.414 21.4726 25.3009 18.6541C26.1879 15.8356 26.2177 12.7858 25.3861 9.94781C24.5544 7.1098 22.9046 4.63134 20.6763 2.8724C18.4479 1.11346 15.7571 0.165666 12.9947 0.166673ZM19.4792 23.5H6.51021C4.68877 22.0329 3.34231 19.9852 2.66176 17.6473C1.98122 15.3095 2.00114 12.8001 2.7187 10.4752C3.43626 8.15019 4.81503 6.12761 6.65949 4.69425C8.50395 3.2609 10.7205 2.48952 12.9947 2.48952C15.2689 2.48952 17.4855 3.2609 19.3299 4.69425C21.1744 6.12761 22.5532 8.15019 23.2707 10.4752C23.9883 12.8001 24.0082 15.3095 23.3277 17.6473C22.6471 19.9852 21.3006 22.0329 19.4792 23.5ZM21.658 14.1667C21.6612 15.4095 21.4321 16.6403 20.9845 17.7858C20.5369 18.9313 19.8799 19.968 19.0525 20.8342L17.5365 19.1658C18.3631 18.3017 18.9594 17.2145 19.2632 16.0175C19.567 14.8206 19.5672 13.5577 19.2637 12.3607L20.9693 10.5232C21.4243 11.6753 21.6586 12.9146 21.658 14.1667ZM6.49721 14.1667C6.4942 15.0982 6.66522 16.0209 7.0001 16.8797C7.33498 17.7386 7.82686 18.5161 8.44646 19.1658L6.93038 20.8342C5.49039 19.3127 4.58831 17.2975 4.37966 15.1362C4.17102 12.975 4.66889 10.803 5.78743 8.99478C6.90597 7.18659 8.57507 5.85553 10.507 5.23109C12.4388 4.60666 14.5124 4.72799 16.3702 5.57417L14.6711 7.41167C13.7089 7.12928 12.6992 7.09022 11.7207 7.29754C10.7423 7.50485 9.82149 7.95294 9.03025 8.60682C8.23902 9.26071 7.59873 10.1027 7.15934 11.0672C6.71995 12.0316 6.49334 13.0923 6.49721 14.1667ZM15.0804 13.5693C15.2107 14.0742 15.1822 14.6114 14.9992 15.0969C14.8163 15.5825 14.4892 15.9891 14.0691 16.2532C13.649 16.5174 13.1595 16.6242 12.6771 16.5571C12.1947 16.4899 11.7465 16.2525 11.4026 15.8819C11.0586 15.5114 10.8383 15.0286 10.7759 14.5088C10.7136 13.9891 10.8127 13.4618 11.0579 13.0092C11.3031 12.5566 11.6805 12.2043 12.1312 12.0071C12.5819 11.81 13.0805 11.7793 13.5492 11.9197L18.1851 6.92517L19.7164 8.57484L15.0804 13.5693Z" fill="#32C156"/>
</svg>
