<svg width="26" height="28" viewBox="0 0 26 28" fill="none" xmlns="http://www.w3.org/2000/svg">
<path d="M14.7894 15.0185L10.4577 11.3668C9.08134 10.2072 7.16241 10.2072 5.78602 11.3668L1.45327 15.0197C0.529546 15.8002 0 16.9727 0 18.235V28H16.2437V18.235C16.2437 16.9727 15.7142 15.8002 14.7894 15.0185ZM12.995 24.5H3.24875V18.235C3.24875 18.0553 3.32455 17.8862 3.45667 17.7753L7.78834 14.1237C7.98543 13.9568 8.26049 13.9568 8.45433 14.1237L12.7849 17.7742C12.9181 17.8862 12.9939 18.0542 12.9939 18.235V24.5H12.995ZM6.4975 18.6667H9.74625V22.1667H6.4975V18.6667ZM15.1608 9.33333H11.9121V5.83333H15.1608V9.33333ZM20.5754 9.33333H17.3267V5.83333H20.5754V9.33333ZM17.3267 11.6667H20.5754V15.1667H17.3267V11.6667ZM25.99 4.08333V28H18.4096V24.5H22.7412V4.08333C22.7412 3.7625 22.4976 3.5 22.1998 3.5H10.2877C9.98991 3.5 9.74625 3.7625 9.74625 4.08333V8.42683C8.68283 8.10133 7.56092 8.10017 6.4975 8.42683V4.08333C6.4975 1.83167 8.19768 0 10.2877 0H22.1998C24.2898 0 25.99 1.83167 25.99 4.08333Z" fill="#ffffff"/>
</svg>


