<svg width="20" height="20" viewBox="0 0 20 20" fill="none" xmlns="http://www.w3.org/2000/svg">
<path d="M12.5002 20L7.50016 16.25V11.9833L0.833496 4.48333V2.5C0.833496 1.83696 1.09689 1.20107 1.56573 0.732233C2.03457 0.263392 2.67045 0 3.3335 0L16.6668 0C17.3299 0 17.9658 0.263392 18.4346 0.732233C18.9034 1.20107 19.1668 1.83696 19.1668 2.5V4.48333L12.5002 11.9833V20ZM9.16683 15.4167L10.8335 16.6667V11.35L17.5002 3.85V2.5C17.5002 2.27899 17.4124 2.06702 17.2561 1.91074C17.0998 1.75446 16.8878 1.66667 16.6668 1.66667H3.3335C3.11248 1.66667 2.90052 1.75446 2.74424 1.91074C2.58796 2.06702 2.50016 2.27899 2.50016 2.5V3.85L9.16683 11.35V15.4167Z" fill="#32C156"/>
</svg>

