<svg width="34" height="36" viewBox="0 0 34 36" fill="none" xmlns="http://www.w3.org/2000/svg">
<path d="M2.75 31.5V4.5C2.75 4.10218 2.89487 3.72064 3.15273 3.43934C3.41059 3.15804 3.76033 3 4.125 3H11V0H4.125C3.03098 0 1.98177 0.474106 1.20818 1.31802C0.434597 2.16193 0 3.30653 0 4.5L0 31.5C0 32.6935 0.434597 33.8381 1.20818 34.682C1.98177 35.5259 3.03098 36 4.125 36H11V33H4.125C3.76033 33 3.41059 32.842 3.15273 32.5607C2.89487 32.2794 2.75 31.8978 2.75 31.5Z" fill="black"/>
<path d="M34 19.9164V17.0836L10.6339 17.1275L16.7767 11.0028L14.7646 9L8.24811 15.4957C7.44894 16.2926 7 17.3732 7 18.5C7 19.6268 7.44894 20.7074 8.24811 21.5042L14.7646 28L16.7738 25.9972L10.7163 19.9589L34 19.9164Z" fill="black"/>
</svg>
