<svg width="70" height="70" viewBox="0 0 70 70" fill="none" xmlns="http://www.w3.org/2000/svg">
<circle cx="35" cy="35" r="35" fill="#F0F2F5"/>
<path d="M50 55H46.6667V46.595C46.6653 45.2884 46.1457 44.0356 45.2217 43.1116C44.2978 42.1877 43.045 41.668 41.7383 41.6667H28.2617C26.955 41.668 25.7022 42.1877 24.7783 43.1116C23.8543 44.0356 23.3347 45.2884 23.3333 46.595V55H20V46.595C20.0026 44.4047 20.8739 42.3049 22.4227 40.7561C23.9715 39.2073 26.0713 38.336 28.2617 38.3334H41.7383C43.9286 38.336 46.0285 39.2073 47.5773 40.7561C49.1261 42.3049 49.9974 44.4047 50 46.595V55Z" fill="#32C156"/>
<path d="M35 35C33.0222 35 31.0888 34.4135 29.4443 33.3147C27.7998 32.2159 26.5181 30.6541 25.7612 28.8268C25.0043 26.9996 24.8063 24.9889 25.1922 23.0491C25.578 21.1093 26.5304 19.3275 27.9289 17.9289C29.3275 16.5304 31.1093 15.578 33.0491 15.1922C34.9889 14.8063 36.9996 15.0043 38.8268 15.7612C40.6541 16.5181 42.2159 17.7998 43.3147 19.4443C44.4135 21.0888 45 23.0222 45 25C44.9974 27.6514 43.9429 30.1934 42.0681 32.0681C40.1934 33.9429 37.6514 34.9974 35 35ZM35 18.3333C33.6815 18.3333 32.3925 18.7243 31.2962 19.4569C30.1999 20.1894 29.3454 21.2306 28.8408 22.4488C28.3362 23.667 28.2042 25.0074 28.4614 26.3006C28.7187 27.5938 29.3536 28.7817 30.286 29.7141C31.2183 30.6464 32.4062 31.2813 33.6994 31.5386C34.9926 31.7958 36.3331 31.6638 37.5512 31.1592C38.7694 30.6546 39.8106 29.8001 40.5431 28.7038C41.2757 27.6075 41.6667 26.3185 41.6667 25C41.6667 23.2319 40.9643 21.5362 39.7141 20.286C38.4638 19.0357 36.7681 18.3333 35 18.3333Z" fill="#32C156"/>
</svg>
