<svg xmlns="http://www.w3.org/2000/svg" xmlns:xlink="http://www.w3.org/1999/xlink" fill="#ffffff" version="1.1" x="0px" y="0px" viewBox="0 0 100 125" enable-background="new 0 0 100 100" xml:space="preserve"><g><path fill-rule="evenodd" clip-rule="evenodd" d="M89.687,86.192c-0.605,1.408-1.671,1.922-3.195,1.883   c-2.969-0.074-5.939-0.02-8.909-0.023c-1.799-0.002-2.784-0.98-2.784-2.773c-0.003-12.73-0.003-25.463,0-38.196   c0-1.795,0.979-2.766,2.785-2.769c2.97-0.002,5.94,0.052,8.909-0.022c1.524-0.039,2.59,0.474,3.194,1.883   C89.687,59.515,89.687,72.854,89.687,86.192z"/><path fill-rule="evenodd" clip-rule="evenodd" d="M89.687,31.439c-0.358,0.493-0.627,1.106-1.093,1.457   c-1.521,1.146-3.641,0.119-3.866-1.82c-0.271-2.334-0.531-4.67-0.957-7.144c-0.06,0.128-0.106,0.266-0.182,0.384   C75.308,37.21,64.061,46.773,50.518,53.759c-7.443,3.84-15.192,6.85-23.4,8.608c-4.306,0.923-8.653,1.494-13.065,1.457   c-0.618-0.006-1.246-0.034-1.852-0.147c-1.02-0.188-1.55-0.945-1.929-1.836c0-0.414,0-0.828,0-1.24   c0.676-1.458,1.8-1.851,3.386-1.794c4.333,0.152,8.615-0.432,12.821-1.439c17.398-4.164,32.567-12.295,44.908-25.402   c3.144-3.338,5.903-6.98,8.334-10.871c0.148-0.238,0.281-0.487,0.484-0.843c-0.292,0.055-0.48,0.077-0.662,0.128   c-2.581,0.733-5.155,1.492-7.741,2.198c-1.907,0.521-3.514-0.874-3.222-2.763c0.157-1.02,0.779-1.69,1.75-1.97   c4.858-1.402,9.72-2.793,14.589-4.157c1.474-0.413,2.887,0.599,3.065,2.146c0.527,4.541,1.035,9.084,1.557,13.625   c0.021,0.199,0.096,0.391,0.146,0.586C89.687,30.509,89.687,30.974,89.687,31.439z"/><path fill-rule="evenodd" clip-rule="evenodd" d="M10.271,73.163c0.602-1.411,1.663-1.925,3.191-1.883   c2.991,0.077,5.987,0.019,8.98,0.023c1.726,0.003,2.719,1.02,2.719,2.76c0.001,3.742,0.002,7.483-0.002,11.226   c-0.001,1.777-0.998,2.761-2.792,2.765c-2.968,0.002-5.937-0.05-8.904,0.021c-1.52,0.035-2.591-0.469-3.193-1.883   C10.271,81.849,10.271,77.507,10.271,73.163z"/><path fill-rule="evenodd" clip-rule="evenodd" d="M68.166,73.474c0,3.877,0,7.756-0.001,11.633   c-0.001,2.032-0.907,2.945-2.917,2.947c-3.051,0-6.101,0.002-9.151-0.002c-1.838-0.002-2.82-0.982-2.82-2.831   c-0.004-7.857-0.006-15.717-0.001-23.573c0.001-1.736,1.025-2.754,2.744-2.754c3.102-0.002,6.204-0.006,9.306,0.001   c1.904,0.002,2.841,0.95,2.842,2.868c0.004,3.903,0.001,7.809,0.001,11.711C68.167,73.474,68.166,73.474,68.166,73.474z"/><path fill-rule="evenodd" clip-rule="evenodd" d="M31.791,78.03c0-2.403-0.005-4.807,0.001-7.209c0.005-1.739,1-2.734,2.747-2.738   c3.074-0.007,6.149-0.009,9.224,0c1.944,0.006,2.92,0.982,2.921,2.905c0.001,4.702,0.001,9.405-0.003,14.107   c-0.002,2.014-0.936,2.956-2.927,2.958c-3.075,0-6.15,0.004-9.224-0.002c-1.757-0.003-2.734-0.98-2.738-2.733   C31.787,82.888,31.791,80.46,31.791,78.03z"/></g><g><path d="M47.968,34.295c0,1.688-0.562,3.146-1.688,4.373c-1.126,1.227-2.633,1.986-4.524,2.279   c0.045,0.562,0.068,1.103,0.068,1.621c0,1.148-0.395,1.722-1.182,1.722c-0.789,0-1.183-0.574-1.183-1.722l0.034-1.553   c-1.733-0.113-3.291-0.557-4.676-1.333c-1.384-0.776-2.076-1.524-2.076-2.246c0-0.315,0.089-0.568,0.27-0.76   c0.18-0.19,0.417-0.287,0.709-0.287s0.664,0.18,1.114,0.541c1.463,1.17,3.04,1.812,4.728,1.924   c0.044-3.152,0.067-6.606,0.067-10.366c-1.823-1.036-3.257-2.071-4.304-3.107c-1.047-1.035-1.571-2.223-1.571-3.562   s0.529-2.499,1.587-3.478c1.057-0.979,2.442-1.559,4.152-1.739v-1.316c0-1.148,0.383-1.722,1.149-1.722   c0.764,0,1.148,0.574,1.148,1.722v1.316c1.439,0.135,2.645,0.474,3.612,1.013c0.968,0.541,1.453,1.138,1.453,1.79   c0,0.248-0.083,0.467-0.254,0.658c-0.168,0.191-0.416,0.287-0.741,0.287c-0.327,0-0.913-0.253-1.756-0.759   c-0.845-0.507-1.638-0.771-2.381-0.793c-0.045,2.701-0.067,5.414-0.067,8.137c1.823,1.081,3.162,2.015,4.017,2.802   c0.855,0.789,1.452,1.542,1.79,2.263C47.8,32.719,47.968,33.485,47.968,34.295z M36.219,21.836c0,1.193,1.136,2.51,3.409,3.95   c0-3.061-0.022-5.391-0.067-6.989c-0.968,0.112-1.768,0.428-2.397,0.945C36.534,20.26,36.219,20.958,36.219,21.836z M44.356,37.25   c0.721-0.821,1.08-1.744,1.08-2.769s-0.326-1.896-0.979-2.617c-0.653-0.72-1.586-1.452-2.802-2.195   c0,4.547,0.011,7.575,0.033,9.083C42.746,38.572,43.635,38.072,44.356,37.25z"/></g></svg>