<svg width="26" height="28" viewBox="0 0 26 28" fill="none" xmlns="http://www.w3.org/2000/svg">
<path d="M22.7412 7H15.6092L14.3541 5.64783L18.4096 2.91667L14.0779 0H11.9121V5.35033L10.3808 7H3.24875C2.38713 7 1.5608 7.36875 0.951537 8.02513C0.342278 8.6815 0 9.57174 0 10.5L0 28H25.99V10.5C25.99 9.57174 25.6477 8.6815 25.0385 8.02513C24.4292 7.36875 23.6029 7 22.7412 7ZM22.7412 9.33333C23.0285 9.33333 23.3039 9.45625 23.507 9.67504C23.7101 9.89383 23.8242 10.1906 23.8242 10.5V11.6667H19.9408L17.775 9.33333H22.7412ZM3.24875 9.33333H8.21501L6.04917 11.6667H2.16583V10.5C2.16583 10.1906 2.27993 9.89383 2.48301 9.67504C2.6861 9.45625 2.96154 9.33333 3.24875 9.33333ZM14.0779 25.6667H11.9121V22.1667C11.9121 21.8572 12.0262 21.5605 12.2293 21.3417C12.4323 21.1229 12.7078 21 12.995 21C13.2822 21 13.5577 21.1229 13.7607 21.3417C13.9638 21.5605 14.0779 21.8572 14.0779 22.1667V25.6667ZM16.2437 25.6667V22.1667C16.2437 21.2384 15.9015 20.3482 15.2922 19.6918C14.683 19.0354 13.8566 18.6667 12.995 18.6667C12.1334 18.6667 11.307 19.0354 10.6978 19.6918C10.0885 20.3482 9.74625 21.2384 9.74625 22.1667V25.6667H2.16583V14H6.94583L12.995 7.483L19.0442 14H23.8242V25.6667H16.2437ZM4.33167 16.3333H7.58042V18.6667H4.33167V16.3333ZM4.33167 21H7.58042V23.3333H4.33167V21ZM18.4096 16.3333H21.6583V18.6667H18.4096V16.3333ZM18.4096 21H21.6583V23.3333H18.4096V21ZM15.1608 14C15.1608 14.4615 15.0338 14.9126 14.7958 15.2963C14.5578 15.68 14.2196 15.9791 13.8238 16.1557C13.4281 16.3323 12.9926 16.3785 12.5725 16.2885C12.1523 16.1985 11.7664 15.9762 11.4635 15.6499C11.1606 15.3236 10.9544 14.9078 10.8708 14.4552C10.7872 14.0026 10.8301 13.5334 10.994 13.1071C11.158 12.6807 11.4356 12.3163 11.7917 12.0599C12.1479 11.8035 12.5666 11.6667 12.995 11.6667C13.5694 11.6667 14.1203 11.9125 14.5265 12.3501C14.9326 12.7877 15.1608 13.3812 15.1608 14Z" fill="#ffffff"/>
</svg>
