<svg width="20" height="20" viewBox="0 0 20 20" fill="none" xmlns="http://www.w3.org/2000/svg">
<path d="M20 18.8232L14.7886 13.6119C16.1423 11.9562 16.8079 9.84362 16.6477 7.71102C16.4874 5.57843 15.5137 3.589 13.9278 2.15423C12.3418 0.719473 10.2651 -0.0508482 8.1272 0.00260702C5.98926 0.0560622 3.95365 0.929204 2.44143 2.44143C0.929204 3.95365 0.0560622 5.98926 0.00260702 8.1272C-0.0508482 10.2651 0.719473 12.3418 2.15423 13.9278C3.589 15.5137 5.57843 16.4874 7.71102 16.6477C9.84362 16.8079 11.9562 16.1423 13.6119 14.7886L18.8232 20L20 18.8232ZM8.34887 15.0067C7.03209 15.0067 5.74487 14.6162 4.65 13.8846C3.55514 13.1531 2.70179 12.1132 2.19788 10.8967C1.69397 9.68015 1.56212 8.34149 1.81901 7.05C2.0759 5.75852 2.71 4.57221 3.64111 3.64111C4.57221 2.71 5.75852 2.0759 7.05 1.81901C8.34149 1.56212 9.68015 1.69397 10.8967 2.19788C12.1132 2.70179 13.1531 3.55514 13.8846 4.65C14.6162 5.74487 15.0067 7.03209 15.0067 8.34887C15.0047 10.114 14.3026 11.8063 13.0544 13.0544C11.8063 14.3026 10.114 15.0047 8.34887 15.0067Z" fill="#32C156"/>
</svg>
