<svg width="26" height="28" viewBox="0 0 26 28" fill="none" xmlns="http://www.w3.org/2000/svg">
<path d="M12.9951 8.74998C12.3273 8.74998 11.6661 8.88577 11.0492 9.14961C10.4323 9.41344 9.87172 9.80016 9.39955 10.2877C8.92737 10.7752 8.55282 11.3539 8.29729 11.9909C8.04175 12.6278 7.91023 13.3105 7.91023 14C7.91023 14.6894 8.04175 15.3721 8.29729 16.009C8.55282 16.646 8.92737 17.2248 9.39955 17.7123C9.87172 18.1998 10.4323 18.5865 11.0492 18.8503C11.6661 19.1142 12.3273 19.25 12.9951 19.25C14.3437 19.25 15.637 18.6968 16.5906 17.7123C17.5442 16.7277 18.0799 15.3923 18.0799 14C18.0799 12.6076 17.5442 11.2722 16.5906 10.2877C15.637 9.3031 14.3437 8.74998 12.9951 8.74998ZM9.60518 14C9.60518 13.5403 9.69286 13.0852 9.86322 12.6606C10.0336 12.2359 10.2833 11.8501 10.5981 11.5251C10.9128 11.2001 11.2865 10.9423 11.6978 10.7664C12.1091 10.5905 12.5499 10.5 12.9951 10.5C13.4402 10.5 13.8811 10.5905 14.2923 10.7664C14.7036 10.9423 15.0773 11.2001 15.3921 11.5251C15.7069 11.8501 15.9566 12.2359 16.1269 12.6606C16.2973 13.0852 16.385 13.5403 16.385 14C16.385 14.9282 16.0278 15.8185 15.3921 16.4748C14.7564 17.1312 13.8941 17.5 12.9951 17.5C12.096 17.5 11.2338 17.1312 10.5981 16.4748C9.96233 15.8185 9.60518 14.9282 9.60518 14ZM21.7071 23.7941L19.7545 22.9086C19.4766 22.7839 19.1744 22.7281 18.8718 22.7455C18.5693 22.7629 18.2749 22.8531 18.0121 23.0089C17.4844 23.3239 17.1477 23.8804 17.081 24.5069L16.846 26.7003C16.8223 26.9207 16.7333 27.1282 16.5911 27.2944C16.449 27.4606 16.2606 27.5774 16.0516 27.6289C14.0413 28.1237 11.9466 28.1237 9.93626 27.6289C9.72756 27.5772 9.53939 27.4603 9.39743 27.2941C9.25547 27.1279 9.16663 26.9205 9.14302 26.7003L8.90799 24.5104C8.87424 24.2023 8.771 23.9065 8.60656 23.647C8.44211 23.3875 8.22104 23.1713 7.96107 23.0159C7.70138 22.8609 7.41002 22.771 7.11049 22.7536C6.81097 22.7361 6.51167 22.7917 6.23674 22.9156L4.28416 23.8011C4.08677 23.8906 3.86731 23.9146 3.65616 23.8696C3.445 23.8247 3.25261 23.7131 3.1056 23.5503C1.70022 21.9953 0.654425 20.1318 0.0467812 18.0996C-0.0171119 17.886 -0.0151112 17.6572 0.0525058 17.4448C0.120123 17.2325 0.250011 17.0471 0.42419 16.9143L2.14965 15.5983C2.39256 15.414 2.59006 15.1733 2.72619 14.8957C2.86232 14.618 2.93325 14.3112 2.93325 14C2.93325 13.6888 2.86232 13.3819 2.72619 13.1042C2.59006 12.8266 2.39256 12.5859 2.14965 12.4016L0.42419 11.0891C0.249787 10.9563 0.119753 10.7707 0.0521259 10.5581C-0.0155012 10.3455 -0.0173691 10.1164 0.0467812 9.90264C0.655683 7.87226 1.70224 6.01072 3.10786 4.45782C3.255 4.29519 3.44746 4.1838 3.65861 4.13908C3.86975 4.09435 4.08915 4.11849 4.28642 4.20816L6.22996 5.09132C6.5065 5.21421 6.80707 5.26855 7.1076 5.25C7.40813 5.23145 7.70028 5.14052 7.96067 4.9845C8.22106 4.82847 8.44246 4.61168 8.60716 4.35147C8.77185 4.09126 8.87526 3.79486 8.90912 3.48599L9.14641 1.295C9.1703 1.07211 9.261 0.86248 9.40583 0.69537C9.55067 0.528261 9.74243 0.412007 9.95434 0.362833C10.9498 0.134166 11.9657 0.0128333 13.0098 0C14.029 0.0116666 15.0437 0.134166 16.0381 0.362833C16.2502 0.411914 16.4422 0.528292 16.5871 0.695662C16.732 0.863031 16.8225 1.07301 16.846 1.29616L17.0822 3.48716C17.1331 3.97305 17.3559 4.42245 17.7079 4.74925C18.0598 5.07604 18.5162 5.25725 18.9896 5.25815C19.2528 5.25815 19.5139 5.20099 19.7579 5.09015L21.7015 4.20699C21.8988 4.11732 22.1181 4.09318 22.3293 4.13791C22.5404 4.18264 22.7329 4.29403 22.88 4.45666C24.2853 6.00962 25.3315 7.87117 25.94 9.90147C26.004 10.1149 26.0022 10.3437 25.9348 10.556C25.8674 10.7684 25.7377 10.9539 25.5637 11.0868L23.8405 12.4016C23.349 12.775 23.0518 13.3688 23.0518 14C23.0518 14.63 23.349 15.2238 23.8416 15.5983L25.566 16.912C25.923 17.185 26.0745 17.661 25.9434 18.0985C25.3349 20.1285 24.2892 21.99 22.8846 23.5433C22.7376 23.7061 22.5452 23.8177 22.334 23.8626C22.1228 23.9076 21.9045 23.8836 21.7071 23.7941ZM15.5522 23.5631C15.8218 22.6913 16.3957 21.954 17.1624 21.4946C17.6556 21.2012 18.2086 21.0314 18.7769 20.9987C19.3453 20.9661 19.9131 21.0716 20.4348 21.3068L21.9535 21.9951C22.929 20.8289 23.684 19.4843 24.1795 18.0308L22.836 17.0076C22.3786 16.6609 22.0064 16.2069 21.7495 15.6845C21.4926 15.1621 21.3581 14.5847 21.3568 13.9988C21.3568 12.8006 21.9184 11.6888 22.8337 10.9935L22.836 10.9923L24.1772 9.96914C23.6814 8.51592 22.926 7.17163 21.9501 6.00598L20.4438 6.68965L20.4416 6.69082C19.9828 6.90082 19.489 7.00815 18.9884 7.00815C18.0982 7.00677 17.2398 6.66661 16.5773 6.05275C15.9148 5.43889 15.4947 4.59441 15.3974 3.68082V3.67849L15.2132 1.97516C14.4863 1.83538 13.7491 1.76005 13.0098 1.75C12.261 1.75972 11.5145 1.83505 10.7781 1.97516L10.5939 3.67966C10.5306 4.26131 10.3359 4.81951 10.0256 5.30938C9.71537 5.79926 9.2981 6.20713 8.80739 6.50023C8.31667 6.79333 7.7662 6.96347 7.20022 6.99697C6.63424 7.03048 6.06854 6.92642 5.54859 6.69315L4.03896 6.00715C3.06303 7.17276 2.30757 8.51707 1.81179 9.97031L3.15645 10.9935C3.61291 11.3405 3.98396 11.7935 4.23969 12.3158C4.49542 12.8382 4.62865 13.4153 4.62865 14.0005C4.62865 14.5858 4.49542 15.1629 4.23969 15.6853C3.98396 16.2076 3.61291 16.6606 3.15645 17.0076L1.81179 18.032C2.30664 19.4875 3.06173 20.8342 4.03783 22.0021L5.55763 21.3138C6.07593 21.0795 6.64031 20.9744 7.20521 21.0068C7.77012 21.0392 8.31972 21.2083 8.80968 21.5004C9.29943 21.7926 9.71598 22.1992 10.0259 22.6877C10.3357 23.1763 10.5303 23.733 10.5939 24.3133V24.3191L10.777 26.0271C12.2425 26.3246 13.7488 26.3246 15.2143 26.0271L15.3974 24.3156C15.4245 24.0589 15.4754 23.8058 15.5522 23.5631Z" fill="#ffffff"/>
</svg>
