<svg width="26" height="28" viewBox="0 0 26 28" fill="none" xmlns="http://www.w3.org/2000/svg">
<g clip-path="url(#clip0_27_566)">
<path d="M6.87544 12.8333H3.24875C2.96154 12.8333 2.6861 12.9563 2.48301 13.175C2.27993 13.3938 2.16583 13.6906 2.16583 14V17.5H0V14C0 13.0717 0.342278 12.1815 0.951537 11.5251C1.5608 10.8688 2.38713 10.5 3.24875 10.5H8.16194C7.5954 11.1795 7.15829 11.9723 6.87544 12.8333ZM22.7412 10.5H17.8281C18.3946 11.1795 18.8317 11.9723 19.1146 12.8333H22.7412C23.0285 12.8333 23.3039 12.9563 23.507 13.175C23.7101 13.3938 23.8242 13.6906 23.8242 14V17.5H25.99V14C25.99 13.0717 25.6477 12.1815 25.0385 11.5251C24.4292 10.8688 23.6029 10.5 22.7412 10.5ZM17.3267 15.1667C17.3267 14.2437 17.0726 13.3414 16.5966 12.574C16.1207 11.8066 15.4442 11.2084 14.6527 10.8552C13.8611 10.502 12.9902 10.4096 12.1499 10.5897C11.3097 10.7697 10.5378 11.2142 9.93205 11.8668C9.32625 12.5195 8.9137 13.351 8.74656 14.2562C8.57943 15.1615 8.66521 16.0998 8.99306 16.9525C9.32091 17.8052 9.87612 18.5341 10.5885 19.0469C11.3008 19.5596 12.1383 19.8333 12.995 19.8333C14.1438 19.8333 15.2456 19.3417 16.058 18.4665C16.8703 17.5913 17.3267 16.4043 17.3267 15.1667ZM15.1608 15.1667C15.1608 15.6282 15.0338 16.0793 14.7958 16.463C14.5578 16.8467 14.2196 17.1458 13.8238 17.3224C13.4281 17.499 12.9926 17.5452 12.5725 17.4552C12.1523 17.3651 11.7664 17.1429 11.4635 16.8166C11.1606 16.4903 10.9544 16.0745 10.8708 15.6219C10.7872 15.1693 10.8301 14.7001 10.994 14.2737C11.158 13.8474 11.4356 13.483 11.7917 13.2266C12.1479 12.9702 12.5666 12.8333 12.995 12.8333C13.5694 12.8333 14.1203 13.0792 14.5265 13.5168C14.9326 13.9543 15.1608 14.5478 15.1608 15.1667ZM19.4925 24.5C19.4925 23.5717 19.1502 22.6815 18.541 22.0251C17.9317 21.3688 17.1054 21 16.2437 21H9.74625C8.88463 21 8.0583 21.3688 7.44904 22.0251C6.83978 22.6815 6.4975 23.5717 6.4975 24.5V28H8.66333V24.5C8.66333 24.1906 8.77743 23.8938 8.98051 23.675C9.1836 23.4563 9.45904 23.3333 9.74625 23.3333H16.2437C16.531 23.3333 16.8064 23.4563 17.0095 23.675C17.2126 23.8938 17.3267 24.1906 17.3267 24.5V28H19.4925V24.5ZM23.8242 4.66667C23.8242 3.74369 23.5701 2.84144 23.0941 2.07401C22.6182 1.30658 21.9417 0.70844 21.1502 0.355231C20.3586 0.00202198 19.4877 -0.0903936 18.6474 0.0896708C17.8072 0.269735 17.0353 0.714192 16.4295 1.36684C15.8238 2.01948 15.4112 2.851 15.2441 3.75625C15.0769 4.66149 15.1627 5.5998 15.4906 6.45253C15.8184 7.30525 16.3736 8.03408 17.086 8.54686C17.7983 9.05964 18.6358 9.33334 19.4925 9.33334C20.6413 9.33334 21.7431 8.84167 22.5554 7.9665C23.3678 7.09133 23.8242 5.90435 23.8242 4.66667ZM21.6583 4.66667C21.6583 5.12816 21.5313 5.57928 21.2933 5.963C21.0553 6.34671 20.7171 6.64578 20.3213 6.82239C19.9256 6.99899 19.4901 7.0452 19.07 6.95517C18.6498 6.86514 18.2639 6.64291 17.961 6.31659C17.6581 5.99026 17.4519 5.5745 17.3683 5.12188C17.2847 4.66926 17.3276 4.2001 17.4915 3.77374C17.6555 3.34738 17.9331 2.98296 18.2892 2.72657C18.6454 2.47018 19.0641 2.33334 19.4925 2.33334C20.0669 2.33334 20.6178 2.57917 21.024 3.01675C21.4301 3.45434 21.6583 4.04783 21.6583 4.66667ZM10.8292 4.66667C10.8292 3.74369 10.5751 2.84144 10.0991 2.07401C9.62318 1.30658 8.94666 0.70844 8.15516 0.355231C7.36365 0.00202198 6.49269 -0.0903936 5.65243 0.0896708C4.81217 0.269735 4.04034 0.714192 3.43455 1.36684C2.82875 2.01948 2.4162 2.851 2.24907 3.75625C2.08193 4.66149 2.16771 5.5998 2.49556 6.45253C2.82342 7.30525 3.37862 8.03408 4.09095 8.54686C4.80329 9.05964 5.64078 9.33334 6.4975 9.33334C7.64633 9.33334 8.74811 8.84167 9.56045 7.9665C10.3728 7.09133 10.8292 5.90435 10.8292 4.66667ZM8.66333 4.66667C8.66333 5.12816 8.53631 5.57928 8.29832 5.963C8.06034 6.34671 7.72208 6.64578 7.32633 6.82239C6.93057 6.99899 6.4951 7.0452 6.07497 6.95517C5.65484 6.86514 5.26892 6.64291 4.96602 6.31659C4.66313 5.99026 4.45685 5.5745 4.37328 5.12188C4.28971 4.66926 4.3326 4.2001 4.49653 3.77374C4.66046 3.34738 4.93806 2.98296 5.29423 2.72657C5.6504 2.47018 6.06914 2.33334 6.4975 2.33334C7.07191 2.33334 7.6228 2.57917 8.02898 3.01675C8.43515 3.45434 8.66333 4.04783 8.66333 4.66667Z" fill="#ffffff"/>
</g>
<defs>
<clipPath id="clip0_27_566">
<rect width="25.99" height="28" fill="white"/>
</clipPath>
</defs>
</svg>
