<svg width="26" height="28" viewBox="0 0 26 28" fill="none" xmlns="http://www.w3.org/2000/svg">
<path d="M5.59274 0V2.34008C6.42737 2.9895 6.96362 4.21106 6.96362 5.5508C6.96362 6.39634 6.74972 7.19439 6.38252 7.83179C6.57251 7.91505 6.77215 8.00756 6.93905 8.08909L13.6477 6.68398L13.9722 10.0663L7.84497 11.4983C7.7977 12.5011 7.71063 13.488 7.55497 14.6785H25.99V0H5.59274ZM4.22208 2.96033C3.31216 2.96033 2.46738 4.05484 2.46738 5.55086C2.46738 7.04687 3.31216 8.14127 4.22208 8.14127C5.13199 8.14127 5.97677 7.04687 5.97677 5.55086C5.97677 4.05484 5.13199 2.96033 4.22208 2.96033ZM12.7809 7.99467L6.82676 9.24171C6.04597 8.89621 6.55502 9.05453 5.6496 8.71643C5.23968 9.05373 4.75421 9.25127 4.22208 9.25127C3.75053 9.25127 3.31573 9.09566 2.9375 8.82572C2.46651 9.04552 1.96947 9.32466 1.52638 9.60613C0.814017 10.0587 0.225683 10.4209 0 10.5949V18.6256H1.09683V11.7798H2.08357V28H3.72871V17.5771H4.71545V28H6.14126V17.402L6.14971 17.3512C6.67137 14.2281 6.83992 12.5787 6.88778 10.5883L12.895 9.18429L12.7809 7.99467ZM7.39914 15.7887C7.34694 16.1391 7.28997 16.5065 7.22664 16.8985H25.1674V15.7887H7.39914ZM10.3631 18.7487C9.45321 18.7487 8.60843 19.8433 8.60843 21.3393C8.60843 22.4616 9.08381 23.3578 9.70559 23.7356C9.90293 23.6331 10.1158 23.5687 10.346 23.5598C10.6 23.5499 10.8384 23.6071 11.0617 23.709C11.6631 23.3173 12.1178 22.4367 12.1178 21.3393C12.1178 19.8433 11.273 18.7487 10.3631 18.7487ZM16.5042 18.7487C15.5943 18.7487 14.7495 19.8433 14.7495 21.3393C14.7495 22.4616 15.2249 23.3578 15.8466 23.7356C16.044 23.6331 16.2569 23.5687 16.4871 23.5598C16.7411 23.5499 16.9794 23.6071 17.2027 23.709C17.8041 23.3173 18.2589 22.4367 18.2589 21.3393C18.2589 19.8433 17.4141 18.7487 16.5042 18.7487ZM22.6452 18.7487C21.7353 18.7487 20.8905 19.8433 20.8905 21.3393C20.8905 22.4616 21.3659 23.3578 21.9877 23.7356C22.185 23.6331 22.3979 23.5687 22.6281 23.5598C22.8821 23.5499 23.1205 23.6071 23.3438 23.709C23.9451 23.3173 24.3999 22.4367 24.3999 21.3393C24.3999 19.8433 23.5551 18.7487 22.6452 18.7487ZM10.3802 24.6691C10.1695 24.6773 9.89185 24.8498 9.59615 25.2109C9.30039 25.572 9.00968 26.0898 8.76683 26.6146C8.53512 27.1154 8.34963 27.6113 8.21524 28H12.8944C12.7278 27.6031 12.5031 27.1027 12.2292 26.5993C11.9387 26.0654 11.598 25.5424 11.2604 25.1835C10.9228 24.8246 10.6134 24.6601 10.3802 24.6691ZM16.5213 24.6691C16.3105 24.6773 16.0329 24.8498 15.7372 25.2109C15.4414 25.572 15.1507 26.0898 14.9079 26.6146C14.6762 27.1154 14.4907 27.6113 14.3563 28H19.0355C18.8688 27.6031 18.6441 27.1027 18.3702 26.5993C18.0797 26.0654 17.7391 25.5424 17.4015 25.1835C17.0639 24.8246 16.7544 24.6601 16.5213 24.6691ZM22.6623 24.6691C22.4516 24.6773 22.1739 24.8498 21.8782 25.2109C21.5825 25.572 21.2918 26.0898 21.0489 26.6146C20.8172 27.1154 20.6317 27.6113 20.4973 28H25.1765C25.0098 27.6031 24.7851 27.1027 24.5113 26.5993C24.2208 26.0654 23.8801 25.5424 23.5425 25.1835C23.2049 24.8246 22.8955 24.6601 22.6623 24.6691Z" fill="#ffffff"/>
</svg>

