<svg width="26" height="28" viewBox="0 0 26 28" fill="none" xmlns="http://www.w3.org/2000/svg">
<path d="M24.5736 8.68805L15.2691 0.845717C14.6205 0.296947 13.8197 -0.00134277 12.995 -0.00134277C12.1703 -0.00134277 11.3695 0.296947 10.7209 0.845717L1.41647 8.68805C0.974021 9.059 0.616312 9.5342 0.37078 10.0772C0.125248 10.6202 -0.001583 11.2166 1.49132e-05 11.8206V27.9999H25.99V11.8206C25.9916 11.2166 25.8648 10.6202 25.6193 10.0772C25.3737 9.5342 25.016 9.059 24.5736 8.68805ZM22.7413 24.4999H3.24877V11.8206C3.24903 11.7482 3.26445 11.6768 3.29389 11.6118C3.32333 11.5467 3.36602 11.4897 3.41878 11.4449L12.7221 3.60138C12.7996 3.53668 12.8948 3.50156 12.9928 3.50156C13.0909 3.50156 13.1861 3.53668 13.2636 3.60138L22.5712 11.4449C22.624 11.4897 22.6667 11.5467 22.6961 11.6118C22.7256 11.6768 22.741 11.7482 22.7413 11.8206V24.4999ZM12.995 9.33322C11.9227 9.33346 10.8746 9.6767 9.9836 10.3194C9.09259 10.9622 8.39878 11.8755 7.99014 12.9435C7.58149 14.0116 7.47642 15.1863 7.68823 16.3188C7.90004 17.4513 8.41921 18.4905 9.1799 19.3047L12.995 23.3262L16.8231 19.2919C17.5805 18.4761 18.0963 17.4368 18.3054 16.3052C18.5144 15.1736 18.4073 14.0006 17.9975 12.9346C17.5877 11.8686 16.8938 10.9575 16.0033 10.3165C15.1129 9.6754 14.066 9.33323 12.995 9.33322ZM12.995 17.4999C12.5667 17.4999 12.1479 17.363 11.7917 17.1066C11.4356 16.8503 11.158 16.4858 10.994 16.0595C10.8301 15.6331 10.7872 15.164 10.8708 14.7113C10.9544 14.2587 11.1606 13.843 11.4635 13.5166C11.7664 13.1903 12.1524 12.9681 12.5725 12.8781C12.9926 12.788 13.4281 12.8342 13.8238 13.0108C14.2196 13.1874 14.5579 13.4865 14.7958 13.8702C15.0338 14.2539 15.1608 14.7051 15.1608 15.1666C15.1608 15.7854 14.9327 16.3789 14.5265 16.8165C14.1203 17.2541 13.5694 17.4999 12.995 17.4999Z" fill="#32C156"/>
</svg>
